<mxfile host="app.diagrams.net" modified="2023-04-19T07:30:12.160Z" agent="Mozilla/5.0 (Windows NT 10.0; Win64; x64) AppleWebKit/537.36 (KHTML, like Gecko) Chrome/112.0.0.0 Safari/537.36" etag="GBJSI8z1jUlMWXA9APIs" version="21.1.7" type="github" pages="2">
  <diagram name="下单" id="13e1069c-82ec-6db2-03f1-153e76fe0fe0">
    <mxGraphModel dx="1122" dy="649" grid="1" gridSize="10" guides="1" tooltips="1" connect="1" arrows="1" fold="1" page="1" pageScale="1" pageWidth="1920" pageHeight="1200" background="none" math="0" shadow="0">
      <root>
        <mxCell id="0" />
        <mxCell id="1" parent="0" />
        <mxCell id="XC6BqRoF2bmVDiK8bHI7-21" value="alt" style="shape=umlFrame;whiteSpace=wrap;html=1;strokeColor=#457B9D;fillColor=#A8DADC;labelBackgroundColor=none;fontColor=#1D3557;" parent="1" vertex="1">
          <mxGeometry x="580" y="440" width="450" height="420" as="geometry" />
        </mxCell>
        <mxCell id="7baba1c4bc27f4b0-2" value="kdniaoprod" style="shape=umlLifeline;perimeter=lifelinePerimeter;whiteSpace=wrap;html=1;container=1;collapsible=0;recursiveResize=0;outlineConnect=0;rounded=1;shadow=0;comic=0;labelBackgroundColor=none;strokeWidth=1;fontFamily=Verdana;fontSize=12;align=center;fillColor=#A8DADC;strokeColor=#457B9D;fontColor=#1D3557;" parent="1" vertex="1">
          <mxGeometry x="480" y="130" width="100" height="840" as="geometry" />
        </mxCell>
        <mxCell id="7baba1c4bc27f4b0-10" value="" style="html=1;points=[];perimeter=orthogonalPerimeter;rounded=0;shadow=0;comic=0;labelBackgroundColor=none;strokeWidth=1;fontFamily=Verdana;fontSize=12;align=center;fillColor=#A8DADC;strokeColor=#457B9D;fontColor=#1D3557;" parent="7baba1c4bc27f4b0-2" vertex="1">
          <mxGeometry x="45" y="200" width="10" height="300" as="geometry" />
        </mxCell>
        <mxCell id="x_i1yC-ZUW30OdBs2FN7-9" value="&lt;font style=&quot;font-size: 11px;&quot;&gt;1、异步下单有失败重试策略，会调度往下一个渠道&lt;br&gt;&lt;div style=&quot;text-align: left;&quot;&gt;&lt;span style=&quot;background-color: initial;&quot;&gt;2、同步下单不会重试，永远只往第一个渠道下单，失败则返回下单失败&lt;/span&gt;&lt;/div&gt;&lt;/font&gt;" style="strokeWidth=1;shadow=0;dashed=0;align=center;html=1;shape=mxgraph.mockup.text.stickyNote2;mainText=;fontSize=17;whiteSpace=wrap;fillColor=#fff2cc;strokeColor=#d6b656;labelBackgroundColor=none;" vertex="1" parent="7baba1c4bc27f4b0-2">
          <mxGeometry x="-30" y="540" width="220" height="90" as="geometry" />
        </mxCell>
        <mxCell id="7baba1c4bc27f4b0-3" value="logisticsex" style="shape=umlLifeline;perimeter=lifelinePerimeter;whiteSpace=wrap;html=1;container=1;collapsible=0;recursiveResize=0;outlineConnect=0;rounded=1;shadow=0;comic=0;labelBackgroundColor=none;strokeWidth=1;fontFamily=Verdana;fontSize=12;align=center;fillColor=#A8DADC;strokeColor=#457B9D;fontColor=#1D3557;" parent="1" vertex="1">
          <mxGeometry x="640" y="130" width="100" height="840" as="geometry" />
        </mxCell>
        <mxCell id="7baba1c4bc27f4b0-13" value="" style="html=1;points=[];perimeter=orthogonalPerimeter;rounded=0;shadow=0;comic=0;labelBackgroundColor=none;strokeWidth=1;fontFamily=Verdana;fontSize=12;align=center;fillColor=#A8DADC;strokeColor=#457B9D;fontColor=#1D3557;" parent="7baba1c4bc27f4b0-3" vertex="1">
          <mxGeometry x="45" y="262" width="10" height="48" as="geometry" />
        </mxCell>
        <mxCell id="XC6BqRoF2bmVDiK8bHI7-18" value="业务参数校验" style="html=1;verticalAlign=bottom;endArrow=block;labelBackgroundColor=none;fontFamily=Verdana;fontSize=12;elbow=vertical;edgeStyle=orthogonalEdgeStyle;curved=1;strokeColor=#457B9D;fontColor=default;" parent="7baba1c4bc27f4b0-3" edge="1">
          <mxGeometry relative="1" as="geometry">
            <mxPoint x="55" y="264" as="sourcePoint" />
            <mxPoint x="55" y="302" as="targetPoint" />
            <Array as="points">
              <mxPoint x="115.5" y="264" />
              <mxPoint x="115.5" y="302" />
            </Array>
          </mxGeometry>
        </mxCell>
        <mxCell id="XC6BqRoF2bmVDiK8bHI7-31" value="下单&lt;br&gt;（JD-C）" style="html=1;verticalAlign=bottom;endArrow=block;rounded=0;curved=1;labelBackgroundColor=none;strokeColor=#457B9D;fontColor=default;" parent="7baba1c4bc27f4b0-3" edge="1">
          <mxGeometry width="80" relative="1" as="geometry">
            <mxPoint x="56" y="388" as="sourcePoint" />
            <mxPoint x="185" y="388" as="targetPoint" />
          </mxGeometry>
        </mxCell>
        <mxCell id="XC6BqRoF2bmVDiK8bHI7-42" value="&lt;font style=&quot;&quot;&gt;&lt;font style=&quot;font-size: 11px;&quot; color=&quot;#000000&quot;&gt;订单信息（&lt;/font&gt;&lt;span style=&quot;font-family: &amp;quot;Courier New&amp;quot;;&quot;&gt;&lt;font style=&quot;font-size: 10px;&quot; color=&quot;#000000&quot;&gt;asyn_order_scheduling&lt;/font&gt;&lt;/span&gt;&lt;span style=&quot;font-size: 11px; color: rgb(0, 0, 0);&quot;&gt;）&lt;/span&gt;&lt;/font&gt;" style="html=1;verticalAlign=bottom;endArrow=block;rounded=0;fontColor=default;curved=1;entryX=-0.2;entryY=0.057;entryDx=0;entryDy=0;entryPerimeter=0;labelBackgroundColor=none;strokeColor=#457B9D;" parent="7baba1c4bc27f4b0-3" edge="1">
          <mxGeometry width="80" relative="1" as="geometry">
            <mxPoint x="57" y="452" as="sourcePoint" />
            <mxPoint x="317" y="451.99" as="targetPoint" />
          </mxGeometry>
        </mxCell>
        <mxCell id="XC6BqRoF2bmVDiK8bHI7-60" value="" style="html=1;points=[];perimeter=orthogonalPerimeter;fontSize=10;fontColor=#1D3557;labelBackgroundColor=none;fillColor=#A8DADC;strokeColor=#457B9D;" parent="7baba1c4bc27f4b0-3" vertex="1">
          <mxGeometry x="45" y="510" width="10" height="150" as="geometry" />
        </mxCell>
        <mxCell id="Oqzg1-_yG6DZoDls_i9h-3" value="" style="html=1;verticalAlign=bottom;endArrow=block;labelBackgroundColor=none;fontFamily=Verdana;fontSize=12;elbow=vertical;edgeStyle=orthogonalEdgeStyle;curved=1;align=left;strokeColor=#457B9D;fontColor=default;" parent="7baba1c4bc27f4b0-3" edge="1">
          <mxGeometry x="-0.2768" y="5" relative="1" as="geometry">
            <mxPoint x="55" y="534" as="sourcePoint" />
            <mxPoint x="55" y="557" as="targetPoint" />
            <Array as="points">
              <mxPoint x="85" y="534" />
              <mxPoint x="85" y="557" />
              <mxPoint x="55" y="557" />
            </Array>
            <mxPoint as="offset" />
          </mxGeometry>
        </mxCell>
        <mxCell id="x_i1yC-ZUW30OdBs2FN7-8" value="&lt;b style=&quot;border-color: var(--border-color); color: rgb(255, 51, 51); font-family: Verdana; background-color: rgb(251, 251, 251);&quot;&gt;筛选渠道JD-C、SF-D&lt;br style=&quot;border-color: var(--border-color);&quot;&gt;（智能调度）&lt;/b&gt;" style="edgeLabel;html=1;align=left;verticalAlign=middle;resizable=0;points=[];labelBackgroundColor=none;fontColor=#1D3557;" vertex="1" connectable="0" parent="Oqzg1-_yG6DZoDls_i9h-3">
          <mxGeometry x="0.0917" y="-3" relative="1" as="geometry">
            <mxPoint y="-13" as="offset" />
          </mxGeometry>
        </mxCell>
        <mxCell id="7baba1c4bc27f4b0-4" value="logisticsgw" style="shape=umlLifeline;perimeter=lifelinePerimeter;whiteSpace=wrap;html=1;container=1;collapsible=0;recursiveResize=0;outlineConnect=0;rounded=1;shadow=0;comic=0;labelBackgroundColor=none;strokeWidth=1;fontFamily=Verdana;fontSize=12;align=center;fillColor=#A8DADC;strokeColor=#457B9D;fontColor=#1D3557;" parent="1" vertex="1">
          <mxGeometry x="780" y="130" width="100" height="840" as="geometry" />
        </mxCell>
        <mxCell id="XC6BqRoF2bmVDiK8bHI7-49" value="" style="html=1;points=[];perimeter=orthogonalPerimeter;rounded=0;shadow=0;comic=0;labelBackgroundColor=none;strokeWidth=1;fontFamily=Verdana;fontSize=12;align=center;fillColor=#A8DADC;strokeColor=#457B9D;fontColor=#1D3557;" parent="7baba1c4bc27f4b0-4" vertex="1">
          <mxGeometry x="45" y="560" width="10" height="70" as="geometry" />
        </mxCell>
        <mxCell id="7baba1c4bc27f4b0-5" value="front(jd-c/sf-d)" style="shape=umlLifeline;perimeter=lifelinePerimeter;whiteSpace=wrap;html=1;container=1;collapsible=0;recursiveResize=0;outlineConnect=0;rounded=1;shadow=0;comic=0;labelBackgroundColor=none;strokeWidth=1;fontFamily=Verdana;fontSize=12;align=center;fillColor=#A8DADC;strokeColor=#457B9D;fontColor=#1D3557;" parent="1" vertex="1">
          <mxGeometry x="1055" y="130" width="96" height="850" as="geometry" />
        </mxCell>
        <mxCell id="7baba1c4bc27f4b0-19" value="" style="html=1;points=[];perimeter=orthogonalPerimeter;rounded=0;shadow=0;comic=0;labelBackgroundColor=none;strokeWidth=1;fontFamily=Verdana;fontSize=12;align=center;fillColor=#A8DADC;strokeColor=#457B9D;fontColor=#1D3557;" parent="7baba1c4bc27f4b0-5" vertex="1">
          <mxGeometry x="45" y="375" width="10" height="225" as="geometry" />
        </mxCell>
        <mxCell id="XC6BqRoF2bmVDiK8bHI7-68" value="下单" style="html=1;verticalAlign=bottom;endArrow=block;rounded=0;labelBackgroundColor=none;fontSize=10;fontColor=default;curved=1;entryX=0.075;entryY=0.006;entryDx=0;entryDy=0;entryPerimeter=0;strokeColor=#457B9D;" parent="7baba1c4bc27f4b0-5" target="7baba1c4bc27f4b0-16" edge="1">
          <mxGeometry width="80" relative="1" as="geometry">
            <mxPoint x="55" y="400" as="sourcePoint" />
            <mxPoint x="135" y="400" as="targetPoint" />
          </mxGeometry>
        </mxCell>
        <mxCell id="7baba1c4bc27f4b0-6" value="express" style="shape=umlLifeline;perimeter=lifelinePerimeter;whiteSpace=wrap;html=1;container=1;collapsible=0;recursiveResize=0;outlineConnect=0;rounded=1;shadow=0;comic=0;labelBackgroundColor=none;strokeWidth=1;fontFamily=Verdana;fontSize=12;align=center;fillColor=#A8DADC;strokeColor=#457B9D;fontColor=#1D3557;" parent="1" vertex="1">
          <mxGeometry x="1212" y="130" width="100" height="840" as="geometry" />
        </mxCell>
        <mxCell id="7baba1c4bc27f4b0-16" value="" style="html=1;points=[];perimeter=orthogonalPerimeter;rounded=0;shadow=0;comic=0;labelBackgroundColor=none;strokeWidth=1;fontFamily=Verdana;fontSize=12;align=center;fillColor=#A8DADC;strokeColor=#457B9D;fontColor=#1D3557;" parent="7baba1c4bc27f4b0-6" vertex="1">
          <mxGeometry x="45" y="400" width="10" height="190" as="geometry" />
        </mxCell>
        <mxCell id="7baba1c4bc27f4b0-8" value="merchant" style="shape=umlLifeline;perimeter=lifelinePerimeter;whiteSpace=wrap;html=1;container=1;collapsible=0;recursiveResize=0;outlineConnect=0;rounded=1;shadow=0;comic=0;labelBackgroundColor=none;strokeWidth=1;fontFamily=Verdana;fontSize=12;align=center;fillColor=#A8DADC;strokeColor=#457B9D;fontColor=#1D3557;" parent="1" vertex="1">
          <mxGeometry x="340" y="130" width="100" height="840" as="geometry" />
        </mxCell>
        <mxCell id="7baba1c4bc27f4b0-9" value="" style="html=1;points=[];perimeter=orthogonalPerimeter;rounded=0;shadow=0;comic=0;labelBackgroundColor=none;strokeWidth=1;fontFamily=Verdana;fontSize=12;align=center;fillColor=#A8DADC;strokeColor=#457B9D;fontColor=#1D3557;" parent="7baba1c4bc27f4b0-8" vertex="1">
          <mxGeometry x="45" y="100" width="10" height="80" as="geometry" />
        </mxCell>
        <mxCell id="XC6BqRoF2bmVDiK8bHI7-17" value="return" style="html=1;verticalAlign=bottom;endArrow=open;dashed=1;endSize=8;labelBackgroundColor=none;fontFamily=Verdana;fontSize=12;edgeStyle=elbowEdgeStyle;elbow=vertical;strokeColor=#457B9D;fontColor=default;" parent="7baba1c4bc27f4b0-8" edge="1">
          <mxGeometry relative="1" as="geometry">
            <mxPoint x="-79" y="118" as="targetPoint" />
            <Array as="points">
              <mxPoint x="-19" y="118" />
              <mxPoint x="11" y="118" />
            </Array>
            <mxPoint x="40" y="118" as="sourcePoint" />
          </mxGeometry>
        </mxCell>
        <mxCell id="XC6BqRoF2bmVDiK8bHI7-54" value="下单结果" style="html=1;verticalAlign=bottom;endArrow=open;dashed=1;endSize=8;rounded=0;curved=1;entryX=0.936;entryY=0.793;entryDx=0;entryDy=0;entryPerimeter=0;labelBackgroundColor=none;strokeColor=#457B9D;fontColor=default;" parent="7baba1c4bc27f4b0-8" target="XC6BqRoF2bmVDiK8bHI7-2" edge="1">
          <mxGeometry relative="1" as="geometry">
            <mxPoint x="180" y="417" as="sourcePoint" />
            <mxPoint x="30" y="420" as="targetPoint" />
          </mxGeometry>
        </mxCell>
        <mxCell id="7baba1c4bc27f4b0-22" value="" style="html=1;points=[];perimeter=orthogonalPerimeter;rounded=0;shadow=0;comic=0;labelBackgroundColor=none;strokeWidth=1;fontFamily=Verdana;fontSize=12;align=center;fillColor=#A8DADC;strokeColor=#457B9D;fontColor=#1D3557;" parent="1" vertex="1">
          <mxGeometry x="825" y="505" width="10" height="40" as="geometry" />
        </mxCell>
        <mxCell id="7baba1c4bc27f4b0-11" value="下单接口" style="html=1;verticalAlign=bottom;endArrow=block;labelBackgroundColor=none;fontFamily=Verdana;fontSize=12;edgeStyle=elbowEdgeStyle;elbow=vertical;exitX=0.888;exitY=0.256;exitDx=0;exitDy=0;exitPerimeter=0;strokeColor=#457B9D;fontColor=default;" parent="1" source="XC6BqRoF2bmVDiK8bHI7-2" edge="1">
          <mxGeometry relative="1" as="geometry">
            <mxPoint x="250.14912280701753" y="332" as="sourcePoint" />
            <mxPoint x="524" y="332" as="targetPoint" />
            <Array as="points">
              <mxPoint x="434" y="332" />
            </Array>
          </mxGeometry>
        </mxCell>
        <mxCell id="7baba1c4bc27f4b0-40" value="商户信息" style="shape=note;whiteSpace=wrap;html=1;size=14;verticalAlign=top;align=left;spacingTop=-6;rounded=0;shadow=0;comic=0;labelBackgroundColor=none;strokeWidth=1;fontFamily=Verdana;fontSize=12;fillColor=#A8DADC;strokeColor=#457B9D;fontColor=#1D3557;" parent="1" vertex="1">
          <mxGeometry x="340" y="80" width="100" height="35" as="geometry" />
        </mxCell>
        <mxCell id="7baba1c4bc27f4b0-41" value="接口参数校验" style="shape=note;whiteSpace=wrap;html=1;size=14;verticalAlign=top;align=left;spacingTop=-6;rounded=0;shadow=0;comic=0;labelBackgroundColor=none;strokeWidth=1;fontFamily=Verdana;fontSize=12;fillColor=#A8DADC;strokeColor=#457B9D;fontColor=#1D3557;" parent="1" vertex="1">
          <mxGeometry x="480" y="80" width="100" height="35" as="geometry" />
        </mxCell>
        <mxCell id="7baba1c4bc27f4b0-42" value="数据转换，调度" style="shape=note;whiteSpace=wrap;html=1;size=14;verticalAlign=top;align=left;spacingTop=-6;rounded=0;shadow=0;comic=0;labelBackgroundColor=none;strokeWidth=1;fontFamily=Verdana;fontSize=12;fillColor=#A8DADC;strokeColor=#457B9D;fontColor=#1D3557;" parent="1" vertex="1">
          <mxGeometry x="640" y="80" width="100" height="35" as="geometry" />
        </mxCell>
        <mxCell id="7baba1c4bc27f4b0-43" value="渠道gateway" style="shape=note;whiteSpace=wrap;html=1;size=14;verticalAlign=top;align=left;spacingTop=-6;rounded=0;shadow=0;comic=0;labelBackgroundColor=none;strokeWidth=1;fontFamily=Verdana;fontSize=12;fillColor=#A8DADC;strokeColor=#457B9D;fontColor=#1D3557;" parent="1" vertex="1">
          <mxGeometry x="780" y="80" width="100" height="35" as="geometry" />
        </mxCell>
        <mxCell id="7baba1c4bc27f4b0-44" value="渠道" style="shape=note;whiteSpace=wrap;html=1;size=14;verticalAlign=top;align=left;spacingTop=-6;rounded=0;shadow=0;comic=0;labelBackgroundColor=none;strokeWidth=1;fontFamily=Verdana;fontSize=12;fillColor=#A8DADC;strokeColor=#457B9D;fontColor=#1D3557;" parent="1" vertex="1">
          <mxGeometry x="1055" y="80" width="100" height="35" as="geometry" />
        </mxCell>
        <mxCell id="7baba1c4bc27f4b0-45" value="快递公司" style="shape=note;whiteSpace=wrap;html=1;size=14;verticalAlign=top;align=left;spacingTop=-6;rounded=0;shadow=0;comic=0;labelBackgroundColor=none;strokeWidth=1;fontFamily=Verdana;fontSize=12;fillColor=#A8DADC;strokeColor=#457B9D;fontColor=#1D3557;" parent="1" vertex="1">
          <mxGeometry x="1212" y="80" width="100" height="35" as="geometry" />
        </mxCell>
        <mxCell id="XC6BqRoF2bmVDiK8bHI7-1" value="openapi" style="shape=umlLifeline;perimeter=lifelinePerimeter;whiteSpace=wrap;html=1;container=1;collapsible=0;recursiveResize=0;outlineConnect=0;rounded=1;shadow=0;comic=0;labelBackgroundColor=none;strokeWidth=1;fontFamily=Verdana;fontSize=12;align=center;fillColor=#A8DADC;strokeColor=#457B9D;fontColor=#1D3557;" parent="1" vertex="1">
          <mxGeometry x="206" y="130" width="100" height="840" as="geometry" />
        </mxCell>
        <mxCell id="XC6BqRoF2bmVDiK8bHI7-2" value="" style="html=1;points=[];perimeter=orthogonalPerimeter;rounded=0;shadow=0;comic=0;labelBackgroundColor=none;strokeWidth=1;fontFamily=Verdana;fontSize=12;align=center;fillColor=#A8DADC;strokeColor=#457B9D;fontColor=#1D3557;" parent="XC6BqRoF2bmVDiK8bHI7-1" vertex="1">
          <mxGeometry x="45" y="100" width="10" height="400" as="geometry" />
        </mxCell>
        <mxCell id="XC6BqRoF2bmVDiK8bHI7-67" value="验签" style="html=1;verticalAlign=bottom;endArrow=block;labelBackgroundColor=none;fontFamily=Verdana;fontSize=12;elbow=vertical;edgeStyle=orthogonalEdgeStyle;curved=1;strokeColor=#457B9D;fontColor=default;" parent="XC6BqRoF2bmVDiK8bHI7-1" edge="1">
          <mxGeometry relative="1" as="geometry">
            <mxPoint x="55" y="130" as="sourcePoint" />
            <mxPoint x="55" y="168" as="targetPoint" />
            <Array as="points">
              <mxPoint x="115.5" y="130" />
              <mxPoint x="115.5" y="168" />
            </Array>
          </mxGeometry>
        </mxCell>
        <mxCell id="XC6BqRoF2bmVDiK8bHI7-3" value="api网关" style="shape=note;whiteSpace=wrap;html=1;size=14;verticalAlign=top;align=left;spacingTop=-6;rounded=0;shadow=0;comic=0;labelBackgroundColor=none;strokeWidth=1;fontFamily=Verdana;fontSize=12;fillColor=#A8DADC;strokeColor=#457B9D;fontColor=#1D3557;" parent="1" vertex="1">
          <mxGeometry x="206" y="80" width="100" height="35" as="geometry" />
        </mxCell>
        <mxCell id="XC6BqRoF2bmVDiK8bHI7-5" value="" style="endArrow=classic;html=1;rounded=0;exitX=1;exitY=0.005;exitDx=0;exitDy=0;exitPerimeter=0;entryX=0.124;entryY=0.035;entryDx=0;entryDy=0;entryPerimeter=0;labelBackgroundColor=none;strokeColor=#457B9D;fontColor=default;" parent="1" source="XC6BqRoF2bmVDiK8bHI7-2" target="7baba1c4bc27f4b0-9" edge="1">
          <mxGeometry width="50" height="50" relative="1" as="geometry">
            <mxPoint x="263" y="230" as="sourcePoint" />
            <mxPoint x="380" y="232" as="targetPoint" />
          </mxGeometry>
        </mxCell>
        <mxCell id="XC6BqRoF2bmVDiK8bHI7-6" value="获取商户信息" style="text;html=1;align=center;verticalAlign=middle;resizable=0;points=[];autosize=1;strokeColor=none;fillColor=none;labelBackgroundColor=none;fontColor=#1D3557;" parent="1" vertex="1">
          <mxGeometry x="270" y="205" width="100" height="30" as="geometry" />
        </mxCell>
        <mxCell id="XC6BqRoF2bmVDiK8bHI7-15" value="基础参数校验" style="html=1;verticalAlign=bottom;endArrow=block;labelBackgroundColor=none;fontFamily=Verdana;fontSize=12;elbow=vertical;edgeStyle=orthogonalEdgeStyle;curved=1;strokeColor=#457B9D;fontColor=default;" parent="1" edge="1">
          <mxGeometry relative="1" as="geometry">
            <mxPoint x="534.5" y="342" as="sourcePoint" />
            <mxPoint x="534.5" y="380" as="targetPoint" />
            <Array as="points">
              <mxPoint x="595" y="342" />
              <mxPoint x="595" y="380" />
            </Array>
          </mxGeometry>
        </mxCell>
        <mxCell id="XC6BqRoF2bmVDiK8bHI7-16" value="下单" style="html=1;verticalAlign=bottom;endArrow=block;labelBackgroundColor=none;fontFamily=Verdana;fontSize=12;edgeStyle=elbowEdgeStyle;elbow=vertical;entryX=0.1;entryY=0.014;entryDx=0;entryDy=0;entryPerimeter=0;strokeColor=#457B9D;fontColor=default;" parent="1" edge="1">
          <mxGeometry relative="1" as="geometry">
            <mxPoint x="536.5" y="392" as="sourcePoint" />
            <mxPoint x="686" y="393.95399999999995" as="targetPoint" />
          </mxGeometry>
        </mxCell>
        <mxCell id="XC6BqRoF2bmVDiK8bHI7-24" value="&lt;font size=&quot;1&quot; color=&quot;#ff3333&quot;&gt;&lt;b style=&quot;font-size: 13px;&quot;&gt;[同步]&lt;/b&gt;&lt;/font&gt;" style="text;html=1;resizable=0;autosize=1;align=center;verticalAlign=middle;points=[];fillColor=none;strokeColor=none;rounded=0;labelBackgroundColor=none;fontColor=#1D3557;" parent="1" vertex="1">
          <mxGeometry x="602" y="478" width="60" height="30" as="geometry" />
        </mxCell>
        <mxCell id="XC6BqRoF2bmVDiK8bHI7-27" value="" style="endArrow=none;dashed=1;html=1;rounded=0;curved=1;entryX=1.002;entryY=0.284;entryDx=0;entryDy=0;entryPerimeter=0;strokeColor=#457B9D;exitX=0.001;exitY=0.285;exitDx=0;exitDy=0;exitPerimeter=0;labelBackgroundColor=none;fontColor=default;strokeWidth=4;" parent="1" target="XC6BqRoF2bmVDiK8bHI7-21" edge="1" source="XC6BqRoF2bmVDiK8bHI7-21">
          <mxGeometry width="50" height="50" relative="1" as="geometry">
            <mxPoint x="620" y="560" as="sourcePoint" />
            <mxPoint x="1010" y="605" as="targetPoint" />
          </mxGeometry>
        </mxCell>
        <mxCell id="XC6BqRoF2bmVDiK8bHI7-29" value="" style="html=1;points=[];perimeter=orthogonalPerimeter;rounded=0;shadow=0;comic=0;labelBackgroundColor=none;strokeColor=#457B9D;strokeWidth=1;fillColor=#A8DADC;fontFamily=Verdana;fontSize=12;fontColor=#1D3557;align=center;" parent="1" vertex="1">
          <mxGeometry x="685" y="460" width="10" height="90" as="geometry" />
        </mxCell>
        <mxCell id="XC6BqRoF2bmVDiK8bHI7-32" value="&lt;b style=&quot;border-color: var(--border-color); font-size: 11px; text-align: left; color: rgb(255, 51, 51);&quot;&gt;筛选渠道JD-C、SF-D&lt;br style=&quot;border-color: var(--border-color);&quot;&gt;（智能调度）&lt;/b&gt;" style="html=1;verticalAlign=bottom;endArrow=block;labelBackgroundColor=none;fontFamily=Verdana;fontSize=12;elbow=vertical;edgeStyle=orthogonalEdgeStyle;curved=1;strokeColor=#457B9D;fontColor=default;" parent="1" edge="1">
          <mxGeometry x="0.1258" y="13" relative="1" as="geometry">
            <mxPoint x="696" y="461" as="sourcePoint" />
            <mxPoint x="696" y="499" as="targetPoint" />
            <Array as="points">
              <mxPoint x="756.5" y="461" />
              <mxPoint x="756.5" y="499" />
            </Array>
            <mxPoint as="offset" />
          </mxGeometry>
        </mxCell>
        <mxCell id="XC6BqRoF2bmVDiK8bHI7-33" value="下单结果" style="html=1;verticalAlign=bottom;endArrow=open;dashed=1;endSize=8;rounded=0;curved=1;entryX=1.005;entryY=0.89;entryDx=0;entryDy=0;entryPerimeter=0;labelBackgroundColor=none;strokeColor=#457B9D;fontColor=default;" parent="1" edge="1" target="XC6BqRoF2bmVDiK8bHI7-29">
          <mxGeometry relative="1" as="geometry">
            <mxPoint x="820" y="540" as="sourcePoint" />
            <mxPoint x="700" y="540" as="targetPoint" />
          </mxGeometry>
        </mxCell>
        <mxCell id="XC6BqRoF2bmVDiK8bHI7-34" value="&lt;font color=&quot;#ff3333&quot; style=&quot;font-size: 13px;&quot;&gt;&lt;b&gt;[异步]&lt;/b&gt;&lt;/font&gt;" style="text;html=1;resizable=0;autosize=1;align=center;verticalAlign=middle;points=[];fillColor=none;strokeColor=none;rounded=0;shadow=1;labelBackgroundColor=none;fontColor=#1D3557;" parent="1" vertex="1">
          <mxGeometry x="602" y="558" width="60" height="30" as="geometry" />
        </mxCell>
        <mxCell id="XC6BqRoF2bmVDiK8bHI7-37" value="kafka" style="shape=umlLifeline;perimeter=lifelinePerimeter;whiteSpace=wrap;html=1;container=1;collapsible=0;recursiveResize=0;outlineConnect=0;rounded=1;shadow=0;comic=0;labelBackgroundColor=none;strokeWidth=1;fontFamily=Verdana;fontSize=12;align=center;fillColor=#A8DADC;strokeColor=#457B9D;fontColor=#1D3557;" parent="1" vertex="1">
          <mxGeometry x="914" y="130" width="96" height="840" as="geometry" />
        </mxCell>
        <mxCell id="XC6BqRoF2bmVDiK8bHI7-41" value="" style="html=1;points=[];perimeter=orthogonalPerimeter;rounded=0;shadow=0;comic=0;labelBackgroundColor=none;strokeWidth=1;fontFamily=Verdana;fontSize=12;align=center;fillColor=#A8DADC;strokeColor=#457B9D;fontColor=#1D3557;" parent="XC6BqRoF2bmVDiK8bHI7-37" vertex="1">
          <mxGeometry x="41" y="435" width="10" height="95" as="geometry" />
        </mxCell>
        <mxCell id="XC6BqRoF2bmVDiK8bHI7-55" value="下单" style="html=1;verticalAlign=bottom;endArrow=block;rounded=0;labelBackgroundColor=none;fontSize=10;fontColor=default;curved=1;entryX=-0.033;entryY=0.816;entryDx=0;entryDy=0;entryPerimeter=0;strokeColor=#457B9D;" parent="XC6BqRoF2bmVDiK8bHI7-37" edge="1">
          <mxGeometry width="80" relative="1" as="geometry">
            <mxPoint x="-79" y="573" as="sourcePoint" />
            <mxPoint x="185.67000000000007" y="573.4399999999998" as="targetPoint" />
          </mxGeometry>
        </mxCell>
        <mxCell id="XC6BqRoF2bmVDiK8bHI7-38" value="MQ" style="shape=note;whiteSpace=wrap;html=1;size=14;verticalAlign=top;align=left;spacingTop=-6;rounded=0;shadow=0;comic=0;labelBackgroundColor=none;strokeWidth=1;fontFamily=Verdana;fontSize=12;fillColor=#A8DADC;strokeColor=#457B9D;fontColor=#1D3557;" parent="1" vertex="1">
          <mxGeometry x="914" y="80" width="100" height="35" as="geometry" />
        </mxCell>
        <mxCell id="XC6BqRoF2bmVDiK8bHI7-39" value="" style="html=1;points=[];perimeter=orthogonalPerimeter;rounded=0;shadow=0;comic=0;labelBackgroundColor=none;strokeColor=#457B9D;strokeWidth=1;fillColor=#A8DADC;fontFamily=Verdana;fontSize=12;fontColor=#1D3557;align=center;" parent="1" vertex="1">
          <mxGeometry x="686" y="566" width="10" height="54" as="geometry" />
        </mxCell>
        <mxCell id="XC6BqRoF2bmVDiK8bHI7-46" value="投递成功" style="html=1;verticalAlign=bottom;endArrow=open;dashed=1;endSize=8;rounded=0;fontColor=default;curved=1;entryX=1.4;entryY=0.378;entryDx=0;entryDy=0;entryPerimeter=0;labelBackgroundColor=none;strokeColor=#457B9D;" parent="1" edge="1">
          <mxGeometry relative="1" as="geometry">
            <mxPoint x="950" y="600" as="sourcePoint" />
            <mxPoint x="697" y="600.02" as="targetPoint" />
          </mxGeometry>
        </mxCell>
        <mxCell id="XC6BqRoF2bmVDiK8bHI7-50" value="下单JD-C" style="html=1;verticalAlign=bottom;endArrow=block;rounded=0;labelBackgroundColor=none;fontSize=10;fontColor=default;curved=1;entryX=0.2;entryY=0.222;entryDx=0;entryDy=0;entryPerimeter=0;strokeColor=#457B9D;" parent="1" edge="1">
          <mxGeometry width="80" relative="1" as="geometry">
            <mxPoint x="697" y="704" as="sourcePoint" />
            <mxPoint x="824" y="703.99" as="targetPoint" />
          </mxGeometry>
        </mxCell>
        <mxCell id="XC6BqRoF2bmVDiK8bHI7-52" value="下单" style="html=1;verticalAlign=bottom;endArrow=block;rounded=0;labelBackgroundColor=none;fontSize=10;fontColor=default;curved=1;exitX=0.5;exitY=0.376;exitDx=0;exitDy=0;exitPerimeter=0;entryX=-0.093;entryY=0.064;entryDx=0;entryDy=0;entryPerimeter=0;strokeColor=#457B9D;" parent="1" target="7baba1c4bc27f4b0-19" edge="1">
          <mxGeometry width="80" relative="1" as="geometry">
            <mxPoint x="835" y="520.04" as="sourcePoint" />
            <mxPoint x="1090" y="520" as="targetPoint" />
          </mxGeometry>
        </mxCell>
        <mxCell id="XC6BqRoF2bmVDiK8bHI7-53" value="下单结果" style="html=1;verticalAlign=bottom;endArrow=open;dashed=1;endSize=8;rounded=0;curved=1;entryX=1.014;entryY=0.711;entryDx=0;entryDy=0;entryPerimeter=0;labelBackgroundColor=none;strokeColor=#457B9D;fontColor=default;" parent="1" edge="1" target="7baba1c4bc27f4b0-10">
          <mxGeometry relative="1" as="geometry">
            <mxPoint x="684" y="544" as="sourcePoint" />
            <mxPoint x="531" y="543.9000000000001" as="targetPoint" />
          </mxGeometry>
        </mxCell>
        <mxCell id="XC6BqRoF2bmVDiK8bHI7-56" value="下单结果" style="html=1;verticalAlign=bottom;endArrow=open;dashed=1;endSize=8;labelBackgroundColor=none;fontFamily=Verdana;fontSize=12;edgeStyle=elbowEdgeStyle;elbow=vertical;strokeColor=#457B9D;fontColor=default;" parent="1" edge="1">
          <mxGeometry relative="1" as="geometry">
            <mxPoint x="835" y="725" as="targetPoint" />
            <Array as="points">
              <mxPoint x="1084" y="725" />
              <mxPoint x="1114" y="725" />
            </Array>
            <mxPoint x="1100" y="725" as="sourcePoint" />
          </mxGeometry>
        </mxCell>
        <mxCell id="XC6BqRoF2bmVDiK8bHI7-58" value="下单结果" style="html=1;verticalAlign=bottom;endArrow=open;dashed=1;endSize=8;rounded=0;labelBackgroundColor=none;fontSize=10;fontColor=default;curved=1;entryX=1.013;entryY=0.651;entryDx=0;entryDy=0;entryPerimeter=0;strokeColor=#457B9D;" parent="1" source="XC6BqRoF2bmVDiK8bHI7-49" target="XC6BqRoF2bmVDiK8bHI7-60" edge="1">
          <mxGeometry relative="1" as="geometry">
            <mxPoint x="820" y="726" as="sourcePoint" />
            <mxPoint x="700" y="740" as="targetPoint" />
          </mxGeometry>
        </mxCell>
        <mxCell id="XC6BqRoF2bmVDiK8bHI7-63" value="下单结果" style="html=1;verticalAlign=bottom;endArrow=open;dashed=1;endSize=8;rounded=0;labelBackgroundColor=none;fontSize=10;fontColor=default;curved=1;strokeColor=#457B9D;" parent="1" edge="1">
          <mxGeometry relative="1" as="geometry">
            <mxPoint x="684" y="600" as="sourcePoint" />
            <mxPoint x="534" y="600" as="targetPoint" />
          </mxGeometry>
        </mxCell>
        <mxCell id="XC6BqRoF2bmVDiK8bHI7-64" value="下单结果" style="html=1;verticalAlign=bottom;endArrow=open;dashed=1;endSize=8;rounded=0;labelBackgroundColor=none;fontSize=10;fontColor=default;curved=1;strokeColor=#457B9D;" parent="1" edge="1">
          <mxGeometry relative="1" as="geometry">
            <mxPoint x="520" y="600" as="sourcePoint" />
            <mxPoint x="260" y="600" as="targetPoint" />
          </mxGeometry>
        </mxCell>
        <mxCell id="XC6BqRoF2bmVDiK8bHI7-69" value="下单" style="html=1;verticalAlign=bottom;endArrow=block;rounded=0;labelBackgroundColor=none;fontSize=10;fontColor=default;curved=1;entryX=0.005;entryY=0.944;entryDx=0;entryDy=0;entryPerimeter=0;strokeColor=#457B9D;" parent="1" edge="1" target="7baba1c4bc27f4b0-16">
          <mxGeometry width="80" relative="1" as="geometry">
            <mxPoint x="1110" y="709" as="sourcePoint" />
            <mxPoint x="1259" y="709" as="targetPoint" />
          </mxGeometry>
        </mxCell>
        <mxCell id="Oqzg1-_yG6DZoDls_i9h-1" value="下单结果" style="html=1;verticalAlign=bottom;endArrow=open;dashed=1;endSize=8;labelBackgroundColor=none;fontFamily=Verdana;fontSize=12;edgeStyle=elbowEdgeStyle;elbow=vertical;strokeColor=#457B9D;fontColor=default;" parent="1" edge="1">
          <mxGeometry relative="1" as="geometry">
            <mxPoint x="835" y="540" as="targetPoint" />
            <Array as="points">
              <mxPoint x="1084" y="540" />
              <mxPoint x="1114" y="540" />
            </Array>
            <mxPoint x="1100" y="540" as="sourcePoint" />
          </mxGeometry>
        </mxCell>
        <mxCell id="Oqzg1-_yG6DZoDls_i9h-2" value="获取订单队列消息" style="html=1;verticalAlign=bottom;endArrow=block;rounded=0;labelBackgroundColor=none;fontSize=10;fontColor=default;strokeColor=#457B9D;curved=1;entryX=-0.011;entryY=0.882;entryDx=0;entryDy=0;entryPerimeter=0;" parent="1" edge="1" target="XC6BqRoF2bmVDiK8bHI7-41">
          <mxGeometry width="80" relative="1" as="geometry">
            <mxPoint x="696" y="649" as="sourcePoint" />
            <mxPoint x="951.1300000000001" y="648.7500000000001" as="targetPoint" />
          </mxGeometry>
        </mxCell>
        <mxCell id="x_i1yC-ZUW30OdBs2FN7-2" value="" style="html=1;points=[];perimeter=orthogonalPerimeter;rounded=0;shadow=0;comic=0;labelBackgroundColor=none;strokeColor=#457B9D;strokeWidth=1;fillColor=#A8DADC;fontFamily=Verdana;fontSize=12;fontColor=#1D3557;align=center;" vertex="1" parent="1">
          <mxGeometry x="960" y="588" width="10" height="54" as="geometry" />
        </mxCell>
        <mxCell id="x_i1yC-ZUW30OdBs2FN7-3" value="loop" style="shape=umlFrame;whiteSpace=wrap;html=1;pointerEvents=0;strokeWidth=1;strokeColor=#2D7600;shadow=0;fillColor=#60a917;swimlaneFillColor=none;fillStyle=auto;labelBackgroundColor=none;fontColor=#ffffff;" vertex="1" parent="1">
          <mxGeometry x="619" y="627" width="661" height="173" as="geometry" />
        </mxCell>
        <mxCell id="x_i1yC-ZUW30OdBs2FN7-4" value="" style="html=1;verticalAlign=bottom;endArrow=block;labelBackgroundColor=none;fontFamily=Verdana;fontSize=12;elbow=vertical;edgeStyle=orthogonalEdgeStyle;curved=1;strokeColor=#457B9D;fontColor=default;" edge="1" parent="1">
          <mxGeometry x="-0.2768" y="5" relative="1" as="geometry">
            <mxPoint x="696" y="762" as="sourcePoint" />
            <mxPoint x="696" y="785" as="targetPoint" />
            <Array as="points">
              <mxPoint x="726" y="762" />
              <mxPoint x="726" y="785" />
              <mxPoint x="696" y="785" />
            </Array>
            <mxPoint as="offset" />
          </mxGeometry>
        </mxCell>
        <mxCell id="x_i1yC-ZUW30OdBs2FN7-5" value="&lt;font style=&quot;font-size: 11px;&quot;&gt;失败loop轮询&lt;br style=&quot;font-size: 11px;&quot;&gt;下一个渠道SF-D，走下单流程&lt;/font&gt;" style="edgeLabel;html=1;align=left;verticalAlign=middle;resizable=0;points=[];labelBackgroundColor=none;fontColor=#1D3557;" vertex="1" connectable="0" parent="x_i1yC-ZUW30OdBs2FN7-4">
          <mxGeometry x="0.1382" y="-2" relative="1" as="geometry">
            <mxPoint as="offset" />
          </mxGeometry>
        </mxCell>
      </root>
    </mxGraphModel>
  </diagram>
  <diagram name="智能调度" id="gkRg3r2S9fhJaJsghYn3">
    <mxGraphModel dx="954" dy="552" grid="1" gridSize="10" guides="1" tooltips="1" connect="1" arrows="1" fold="1" page="1" pageScale="1" pageWidth="1920" pageHeight="1200" background="none" math="0" shadow="0">
      <root>
        <mxCell id="yA4Jd4gJk7kA0UyTqe5--0" />
        <mxCell id="yA4Jd4gJk7kA0UyTqe5--1" parent="yA4Jd4gJk7kA0UyTqe5--0" />
        <mxCell id="yA4Jd4gJk7kA0UyTqe5--2" value="alt" style="shape=umlFrame;whiteSpace=wrap;html=1;strokeColor=#457B9D;fillColor=#A8DADC;labelBackgroundColor=none;fontColor=#1D3557;" vertex="1" parent="yA4Jd4gJk7kA0UyTqe5--1">
          <mxGeometry x="580" y="440" width="450" height="420" as="geometry" />
        </mxCell>
        <mxCell id="yA4Jd4gJk7kA0UyTqe5--6" value="logisticsex" style="shape=umlLifeline;perimeter=lifelinePerimeter;whiteSpace=wrap;html=1;container=1;collapsible=0;recursiveResize=0;outlineConnect=0;rounded=1;shadow=0;comic=0;labelBackgroundColor=none;strokeWidth=1;fontFamily=Verdana;fontSize=12;align=center;fillColor=#A8DADC;strokeColor=#457B9D;fontColor=#1D3557;" vertex="1" parent="yA4Jd4gJk7kA0UyTqe5--1">
          <mxGeometry x="640" y="130" width="100" height="840" as="geometry" />
        </mxCell>
        <mxCell id="yA4Jd4gJk7kA0UyTqe5--9" value="下单&lt;br&gt;（JD-C）" style="html=1;verticalAlign=bottom;endArrow=block;rounded=0;curved=1;labelBackgroundColor=none;strokeColor=#457B9D;fontColor=default;" edge="1" parent="yA4Jd4gJk7kA0UyTqe5--6">
          <mxGeometry width="80" relative="1" as="geometry">
            <mxPoint x="56" y="388" as="sourcePoint" />
            <mxPoint x="185" y="388" as="targetPoint" />
          </mxGeometry>
        </mxCell>
        <mxCell id="yA4Jd4gJk7kA0UyTqe5--10" value="&lt;font style=&quot;&quot;&gt;&lt;font style=&quot;font-size: 11px;&quot; color=&quot;#000000&quot;&gt;订单信息（&lt;/font&gt;&lt;span style=&quot;font-family: &amp;quot;Courier New&amp;quot;;&quot;&gt;&lt;font style=&quot;font-size: 10px;&quot; color=&quot;#000000&quot;&gt;asyn_order_scheduling&lt;/font&gt;&lt;/span&gt;&lt;span style=&quot;font-size: 11px; color: rgb(0, 0, 0);&quot;&gt;）&lt;/span&gt;&lt;/font&gt;" style="html=1;verticalAlign=bottom;endArrow=block;rounded=0;fontColor=default;curved=1;entryX=-0.2;entryY=0.057;entryDx=0;entryDy=0;entryPerimeter=0;labelBackgroundColor=none;strokeColor=#457B9D;" edge="1" parent="yA4Jd4gJk7kA0UyTqe5--6">
          <mxGeometry width="80" relative="1" as="geometry">
            <mxPoint x="57" y="452" as="sourcePoint" />
            <mxPoint x="317" y="451.99" as="targetPoint" />
          </mxGeometry>
        </mxCell>
        <mxCell id="yA4Jd4gJk7kA0UyTqe5--11" value="" style="html=1;points=[];perimeter=orthogonalPerimeter;fontSize=10;fontColor=#1D3557;labelBackgroundColor=none;fillColor=#A8DADC;strokeColor=#457B9D;" vertex="1" parent="yA4Jd4gJk7kA0UyTqe5--6">
          <mxGeometry x="45" y="510" width="10" height="150" as="geometry" />
        </mxCell>
        <mxCell id="yA4Jd4gJk7kA0UyTqe5--12" value="" style="html=1;verticalAlign=bottom;endArrow=block;labelBackgroundColor=none;fontFamily=Verdana;fontSize=12;elbow=vertical;edgeStyle=orthogonalEdgeStyle;curved=1;align=left;strokeColor=#457B9D;fontColor=default;" edge="1" parent="yA4Jd4gJk7kA0UyTqe5--6">
          <mxGeometry x="-0.2768" y="5" relative="1" as="geometry">
            <mxPoint x="55" y="534" as="sourcePoint" />
            <mxPoint x="55" y="557" as="targetPoint" />
            <Array as="points">
              <mxPoint x="85" y="534" />
              <mxPoint x="85" y="557" />
              <mxPoint x="55" y="557" />
            </Array>
            <mxPoint as="offset" />
          </mxGeometry>
        </mxCell>
        <mxCell id="yA4Jd4gJk7kA0UyTqe5--13" value="&lt;b style=&quot;border-color: var(--border-color); color: rgb(255, 51, 51); font-family: Verdana; background-color: rgb(251, 251, 251);&quot;&gt;筛选渠道JD-C、SF-D&lt;br style=&quot;border-color: var(--border-color);&quot;&gt;（智能调度）&lt;/b&gt;" style="edgeLabel;html=1;align=left;verticalAlign=middle;resizable=0;points=[];labelBackgroundColor=none;fontColor=#1D3557;" vertex="1" connectable="0" parent="yA4Jd4gJk7kA0UyTqe5--12">
          <mxGeometry x="0.0917" y="-3" relative="1" as="geometry">
            <mxPoint y="-13" as="offset" />
          </mxGeometry>
        </mxCell>
        <mxCell id="yA4Jd4gJk7kA0UyTqe5--14" value="logisticsgw" style="shape=umlLifeline;perimeter=lifelinePerimeter;whiteSpace=wrap;html=1;container=1;collapsible=0;recursiveResize=0;outlineConnect=0;rounded=1;shadow=0;comic=0;labelBackgroundColor=none;strokeWidth=1;fontFamily=Verdana;fontSize=12;align=center;fillColor=#A8DADC;strokeColor=#457B9D;fontColor=#1D3557;" vertex="1" parent="yA4Jd4gJk7kA0UyTqe5--1">
          <mxGeometry x="780" y="130" width="100" height="840" as="geometry" />
        </mxCell>
        <mxCell id="yA4Jd4gJk7kA0UyTqe5--15" value="" style="html=1;points=[];perimeter=orthogonalPerimeter;rounded=0;shadow=0;comic=0;labelBackgroundColor=none;strokeWidth=1;fontFamily=Verdana;fontSize=12;align=center;fillColor=#A8DADC;strokeColor=#457B9D;fontColor=#1D3557;" vertex="1" parent="yA4Jd4gJk7kA0UyTqe5--14">
          <mxGeometry x="45" y="560" width="10" height="70" as="geometry" />
        </mxCell>
        <mxCell id="yA4Jd4gJk7kA0UyTqe5--16" value="front(jd-c/sf-d)" style="shape=umlLifeline;perimeter=lifelinePerimeter;whiteSpace=wrap;html=1;container=1;collapsible=0;recursiveResize=0;outlineConnect=0;rounded=1;shadow=0;comic=0;labelBackgroundColor=none;strokeWidth=1;fontFamily=Verdana;fontSize=12;align=center;fillColor=#A8DADC;strokeColor=#457B9D;fontColor=#1D3557;" vertex="1" parent="yA4Jd4gJk7kA0UyTqe5--1">
          <mxGeometry x="1055" y="130" width="96" height="850" as="geometry" />
        </mxCell>
        <mxCell id="yA4Jd4gJk7kA0UyTqe5--17" value="" style="html=1;points=[];perimeter=orthogonalPerimeter;rounded=0;shadow=0;comic=0;labelBackgroundColor=none;strokeWidth=1;fontFamily=Verdana;fontSize=12;align=center;fillColor=#A8DADC;strokeColor=#457B9D;fontColor=#1D3557;" vertex="1" parent="yA4Jd4gJk7kA0UyTqe5--16">
          <mxGeometry x="45" y="375" width="10" height="225" as="geometry" />
        </mxCell>
        <mxCell id="yA4Jd4gJk7kA0UyTqe5--18" value="下单" style="html=1;verticalAlign=bottom;endArrow=block;rounded=0;labelBackgroundColor=none;fontSize=10;fontColor=default;curved=1;entryX=0.075;entryY=0.006;entryDx=0;entryDy=0;entryPerimeter=0;strokeColor=#457B9D;" edge="1" parent="yA4Jd4gJk7kA0UyTqe5--16" target="yA4Jd4gJk7kA0UyTqe5--20">
          <mxGeometry width="80" relative="1" as="geometry">
            <mxPoint x="55" y="400" as="sourcePoint" />
            <mxPoint x="135" y="400" as="targetPoint" />
          </mxGeometry>
        </mxCell>
        <mxCell id="yA4Jd4gJk7kA0UyTqe5--19" value="express" style="shape=umlLifeline;perimeter=lifelinePerimeter;whiteSpace=wrap;html=1;container=1;collapsible=0;recursiveResize=0;outlineConnect=0;rounded=1;shadow=0;comic=0;labelBackgroundColor=none;strokeWidth=1;fontFamily=Verdana;fontSize=12;align=center;fillColor=#A8DADC;strokeColor=#457B9D;fontColor=#1D3557;" vertex="1" parent="yA4Jd4gJk7kA0UyTqe5--1">
          <mxGeometry x="1212" y="130" width="100" height="840" as="geometry" />
        </mxCell>
        <mxCell id="yA4Jd4gJk7kA0UyTqe5--20" value="" style="html=1;points=[];perimeter=orthogonalPerimeter;rounded=0;shadow=0;comic=0;labelBackgroundColor=none;strokeWidth=1;fontFamily=Verdana;fontSize=12;align=center;fillColor=#A8DADC;strokeColor=#457B9D;fontColor=#1D3557;" vertex="1" parent="yA4Jd4gJk7kA0UyTqe5--19">
          <mxGeometry x="45" y="400" width="10" height="190" as="geometry" />
        </mxCell>
        <mxCell id="yA4Jd4gJk7kA0UyTqe5--25" value="" style="html=1;points=[];perimeter=orthogonalPerimeter;rounded=0;shadow=0;comic=0;labelBackgroundColor=none;strokeWidth=1;fontFamily=Verdana;fontSize=12;align=center;fillColor=#A8DADC;strokeColor=#457B9D;fontColor=#1D3557;" vertex="1" parent="yA4Jd4gJk7kA0UyTqe5--1">
          <mxGeometry x="825" y="505" width="10" height="40" as="geometry" />
        </mxCell>
        <mxCell id="yA4Jd4gJk7kA0UyTqe5--29" value="数据转换，调度" style="shape=note;whiteSpace=wrap;html=1;size=14;verticalAlign=top;align=left;spacingTop=-6;rounded=0;shadow=0;comic=0;labelBackgroundColor=none;strokeWidth=1;fontFamily=Verdana;fontSize=12;fillColor=#A8DADC;strokeColor=#457B9D;fontColor=#1D3557;" vertex="1" parent="yA4Jd4gJk7kA0UyTqe5--1">
          <mxGeometry x="640" y="80" width="100" height="35" as="geometry" />
        </mxCell>
        <mxCell id="yA4Jd4gJk7kA0UyTqe5--30" value="渠道gateway" style="shape=note;whiteSpace=wrap;html=1;size=14;verticalAlign=top;align=left;spacingTop=-6;rounded=0;shadow=0;comic=0;labelBackgroundColor=none;strokeWidth=1;fontFamily=Verdana;fontSize=12;fillColor=#A8DADC;strokeColor=#457B9D;fontColor=#1D3557;" vertex="1" parent="yA4Jd4gJk7kA0UyTqe5--1">
          <mxGeometry x="780" y="80" width="100" height="35" as="geometry" />
        </mxCell>
        <mxCell id="yA4Jd4gJk7kA0UyTqe5--31" value="渠道" style="shape=note;whiteSpace=wrap;html=1;size=14;verticalAlign=top;align=left;spacingTop=-6;rounded=0;shadow=0;comic=0;labelBackgroundColor=none;strokeWidth=1;fontFamily=Verdana;fontSize=12;fillColor=#A8DADC;strokeColor=#457B9D;fontColor=#1D3557;" vertex="1" parent="yA4Jd4gJk7kA0UyTqe5--1">
          <mxGeometry x="1055" y="80" width="100" height="35" as="geometry" />
        </mxCell>
        <mxCell id="yA4Jd4gJk7kA0UyTqe5--32" value="快递公司" style="shape=note;whiteSpace=wrap;html=1;size=14;verticalAlign=top;align=left;spacingTop=-6;rounded=0;shadow=0;comic=0;labelBackgroundColor=none;strokeWidth=1;fontFamily=Verdana;fontSize=12;fillColor=#A8DADC;strokeColor=#457B9D;fontColor=#1D3557;" vertex="1" parent="yA4Jd4gJk7kA0UyTqe5--1">
          <mxGeometry x="1212" y="80" width="100" height="35" as="geometry" />
        </mxCell>
        <mxCell id="yA4Jd4gJk7kA0UyTqe5--41" value="&lt;font size=&quot;1&quot; color=&quot;#ff3333&quot;&gt;&lt;b style=&quot;font-size: 13px;&quot;&gt;[同步]&lt;/b&gt;&lt;/font&gt;" style="text;html=1;resizable=0;autosize=1;align=center;verticalAlign=middle;points=[];fillColor=none;strokeColor=none;rounded=0;labelBackgroundColor=none;fontColor=#1D3557;" vertex="1" parent="yA4Jd4gJk7kA0UyTqe5--1">
          <mxGeometry x="602" y="478" width="60" height="30" as="geometry" />
        </mxCell>
        <mxCell id="yA4Jd4gJk7kA0UyTqe5--42" value="" style="endArrow=none;dashed=1;html=1;rounded=0;curved=1;entryX=1.002;entryY=0.284;entryDx=0;entryDy=0;entryPerimeter=0;strokeColor=#457B9D;exitX=0.001;exitY=0.285;exitDx=0;exitDy=0;exitPerimeter=0;labelBackgroundColor=none;fontColor=default;strokeWidth=4;" edge="1" parent="yA4Jd4gJk7kA0UyTqe5--1" source="yA4Jd4gJk7kA0UyTqe5--2" target="yA4Jd4gJk7kA0UyTqe5--2">
          <mxGeometry width="50" height="50" relative="1" as="geometry">
            <mxPoint x="620" y="560" as="sourcePoint" />
            <mxPoint x="1010" y="605" as="targetPoint" />
          </mxGeometry>
        </mxCell>
        <mxCell id="yA4Jd4gJk7kA0UyTqe5--43" value="" style="html=1;points=[];perimeter=orthogonalPerimeter;rounded=0;shadow=0;comic=0;labelBackgroundColor=none;strokeColor=#457B9D;strokeWidth=1;fillColor=#A8DADC;fontFamily=Verdana;fontSize=12;fontColor=#1D3557;align=center;" vertex="1" parent="yA4Jd4gJk7kA0UyTqe5--1">
          <mxGeometry x="685" y="460" width="10" height="90" as="geometry" />
        </mxCell>
        <mxCell id="yA4Jd4gJk7kA0UyTqe5--44" value="&lt;b style=&quot;border-color: var(--border-color); font-size: 11px; text-align: left; color: rgb(255, 51, 51);&quot;&gt;筛选渠道JD-C、SF-D&lt;br style=&quot;border-color: var(--border-color);&quot;&gt;（智能调度）&lt;/b&gt;" style="html=1;verticalAlign=bottom;endArrow=block;labelBackgroundColor=none;fontFamily=Verdana;fontSize=12;elbow=vertical;edgeStyle=orthogonalEdgeStyle;curved=1;strokeColor=#457B9D;fontColor=default;" edge="1" parent="yA4Jd4gJk7kA0UyTqe5--1">
          <mxGeometry x="0.1258" y="13" relative="1" as="geometry">
            <mxPoint x="696" y="461" as="sourcePoint" />
            <mxPoint x="696" y="499" as="targetPoint" />
            <Array as="points">
              <mxPoint x="756.5" y="461" />
              <mxPoint x="756.5" y="499" />
            </Array>
            <mxPoint as="offset" />
          </mxGeometry>
        </mxCell>
        <mxCell id="yA4Jd4gJk7kA0UyTqe5--45" value="下单结果" style="html=1;verticalAlign=bottom;endArrow=open;dashed=1;endSize=8;rounded=0;curved=1;entryX=1.005;entryY=0.89;entryDx=0;entryDy=0;entryPerimeter=0;labelBackgroundColor=none;strokeColor=#457B9D;fontColor=default;" edge="1" parent="yA4Jd4gJk7kA0UyTqe5--1" target="yA4Jd4gJk7kA0UyTqe5--43">
          <mxGeometry relative="1" as="geometry">
            <mxPoint x="820" y="540" as="sourcePoint" />
            <mxPoint x="700" y="540" as="targetPoint" />
          </mxGeometry>
        </mxCell>
        <mxCell id="yA4Jd4gJk7kA0UyTqe5--46" value="&lt;font color=&quot;#ff3333&quot; style=&quot;font-size: 13px;&quot;&gt;&lt;b&gt;[异步]&lt;/b&gt;&lt;/font&gt;" style="text;html=1;resizable=0;autosize=1;align=center;verticalAlign=middle;points=[];fillColor=none;strokeColor=none;rounded=0;shadow=1;labelBackgroundColor=none;fontColor=#1D3557;" vertex="1" parent="yA4Jd4gJk7kA0UyTqe5--1">
          <mxGeometry x="602" y="558" width="60" height="30" as="geometry" />
        </mxCell>
        <mxCell id="yA4Jd4gJk7kA0UyTqe5--47" value="kafka" style="shape=umlLifeline;perimeter=lifelinePerimeter;whiteSpace=wrap;html=1;container=1;collapsible=0;recursiveResize=0;outlineConnect=0;rounded=1;shadow=0;comic=0;labelBackgroundColor=none;strokeWidth=1;fontFamily=Verdana;fontSize=12;align=center;fillColor=#A8DADC;strokeColor=#457B9D;fontColor=#1D3557;" vertex="1" parent="yA4Jd4gJk7kA0UyTqe5--1">
          <mxGeometry x="914" y="130" width="96" height="840" as="geometry" />
        </mxCell>
        <mxCell id="yA4Jd4gJk7kA0UyTqe5--48" value="" style="html=1;points=[];perimeter=orthogonalPerimeter;rounded=0;shadow=0;comic=0;labelBackgroundColor=none;strokeWidth=1;fontFamily=Verdana;fontSize=12;align=center;fillColor=#A8DADC;strokeColor=#457B9D;fontColor=#1D3557;" vertex="1" parent="yA4Jd4gJk7kA0UyTqe5--47">
          <mxGeometry x="41" y="435" width="10" height="95" as="geometry" />
        </mxCell>
        <mxCell id="yA4Jd4gJk7kA0UyTqe5--49" value="下单" style="html=1;verticalAlign=bottom;endArrow=block;rounded=0;labelBackgroundColor=none;fontSize=10;fontColor=default;curved=1;entryX=-0.033;entryY=0.816;entryDx=0;entryDy=0;entryPerimeter=0;strokeColor=#457B9D;" edge="1" parent="yA4Jd4gJk7kA0UyTqe5--47">
          <mxGeometry width="80" relative="1" as="geometry">
            <mxPoint x="-79" y="573" as="sourcePoint" />
            <mxPoint x="185.67000000000007" y="573.4399999999998" as="targetPoint" />
          </mxGeometry>
        </mxCell>
        <mxCell id="yA4Jd4gJk7kA0UyTqe5--50" value="MQ" style="shape=note;whiteSpace=wrap;html=1;size=14;verticalAlign=top;align=left;spacingTop=-6;rounded=0;shadow=0;comic=0;labelBackgroundColor=none;strokeWidth=1;fontFamily=Verdana;fontSize=12;fillColor=#A8DADC;strokeColor=#457B9D;fontColor=#1D3557;" vertex="1" parent="yA4Jd4gJk7kA0UyTqe5--1">
          <mxGeometry x="914" y="80" width="100" height="35" as="geometry" />
        </mxCell>
        <mxCell id="yA4Jd4gJk7kA0UyTqe5--51" value="" style="html=1;points=[];perimeter=orthogonalPerimeter;rounded=0;shadow=0;comic=0;labelBackgroundColor=none;strokeColor=#457B9D;strokeWidth=1;fillColor=#A8DADC;fontFamily=Verdana;fontSize=12;fontColor=#1D3557;align=center;" vertex="1" parent="yA4Jd4gJk7kA0UyTqe5--1">
          <mxGeometry x="686" y="566" width="10" height="54" as="geometry" />
        </mxCell>
        <mxCell id="yA4Jd4gJk7kA0UyTqe5--52" value="投递成功" style="html=1;verticalAlign=bottom;endArrow=open;dashed=1;endSize=8;rounded=0;fontColor=default;curved=1;entryX=1.4;entryY=0.378;entryDx=0;entryDy=0;entryPerimeter=0;labelBackgroundColor=none;strokeColor=#457B9D;" edge="1" parent="yA4Jd4gJk7kA0UyTqe5--1">
          <mxGeometry relative="1" as="geometry">
            <mxPoint x="950" y="600" as="sourcePoint" />
            <mxPoint x="697" y="600.02" as="targetPoint" />
          </mxGeometry>
        </mxCell>
        <mxCell id="yA4Jd4gJk7kA0UyTqe5--53" value="下单JD-C" style="html=1;verticalAlign=bottom;endArrow=block;rounded=0;labelBackgroundColor=none;fontSize=10;fontColor=default;curved=1;entryX=0.2;entryY=0.222;entryDx=0;entryDy=0;entryPerimeter=0;strokeColor=#457B9D;" edge="1" parent="yA4Jd4gJk7kA0UyTqe5--1">
          <mxGeometry width="80" relative="1" as="geometry">
            <mxPoint x="697" y="704" as="sourcePoint" />
            <mxPoint x="824" y="703.99" as="targetPoint" />
          </mxGeometry>
        </mxCell>
        <mxCell id="yA4Jd4gJk7kA0UyTqe5--54" value="下单" style="html=1;verticalAlign=bottom;endArrow=block;rounded=0;labelBackgroundColor=none;fontSize=10;fontColor=default;curved=1;exitX=0.5;exitY=0.376;exitDx=0;exitDy=0;exitPerimeter=0;entryX=-0.093;entryY=0.064;entryDx=0;entryDy=0;entryPerimeter=0;strokeColor=#457B9D;" edge="1" parent="yA4Jd4gJk7kA0UyTqe5--1" target="yA4Jd4gJk7kA0UyTqe5--17">
          <mxGeometry width="80" relative="1" as="geometry">
            <mxPoint x="835" y="520.04" as="sourcePoint" />
            <mxPoint x="1090" y="520" as="targetPoint" />
          </mxGeometry>
        </mxCell>
        <mxCell id="yA4Jd4gJk7kA0UyTqe5--56" value="下单结果" style="html=1;verticalAlign=bottom;endArrow=open;dashed=1;endSize=8;labelBackgroundColor=none;fontFamily=Verdana;fontSize=12;edgeStyle=elbowEdgeStyle;elbow=vertical;strokeColor=#457B9D;fontColor=default;" edge="1" parent="yA4Jd4gJk7kA0UyTqe5--1">
          <mxGeometry relative="1" as="geometry">
            <mxPoint x="835" y="725" as="targetPoint" />
            <Array as="points">
              <mxPoint x="1084" y="725" />
              <mxPoint x="1114" y="725" />
            </Array>
            <mxPoint x="1100" y="725" as="sourcePoint" />
          </mxGeometry>
        </mxCell>
        <mxCell id="yA4Jd4gJk7kA0UyTqe5--57" value="下单结果" style="html=1;verticalAlign=bottom;endArrow=open;dashed=1;endSize=8;rounded=0;labelBackgroundColor=none;fontSize=10;fontColor=default;curved=1;entryX=1.013;entryY=0.651;entryDx=0;entryDy=0;entryPerimeter=0;strokeColor=#457B9D;" edge="1" parent="yA4Jd4gJk7kA0UyTqe5--1" source="yA4Jd4gJk7kA0UyTqe5--15" target="yA4Jd4gJk7kA0UyTqe5--11">
          <mxGeometry relative="1" as="geometry">
            <mxPoint x="820" y="726" as="sourcePoint" />
            <mxPoint x="700" y="740" as="targetPoint" />
          </mxGeometry>
        </mxCell>
        <mxCell id="yA4Jd4gJk7kA0UyTqe5--60" value="下单" style="html=1;verticalAlign=bottom;endArrow=block;rounded=0;labelBackgroundColor=none;fontSize=10;fontColor=default;curved=1;entryX=0.005;entryY=0.944;entryDx=0;entryDy=0;entryPerimeter=0;strokeColor=#457B9D;" edge="1" parent="yA4Jd4gJk7kA0UyTqe5--1" target="yA4Jd4gJk7kA0UyTqe5--20">
          <mxGeometry width="80" relative="1" as="geometry">
            <mxPoint x="1110" y="709" as="sourcePoint" />
            <mxPoint x="1259" y="709" as="targetPoint" />
          </mxGeometry>
        </mxCell>
        <mxCell id="yA4Jd4gJk7kA0UyTqe5--61" value="下单结果" style="html=1;verticalAlign=bottom;endArrow=open;dashed=1;endSize=8;labelBackgroundColor=none;fontFamily=Verdana;fontSize=12;edgeStyle=elbowEdgeStyle;elbow=vertical;strokeColor=#457B9D;fontColor=default;" edge="1" parent="yA4Jd4gJk7kA0UyTqe5--1">
          <mxGeometry relative="1" as="geometry">
            <mxPoint x="835" y="540" as="targetPoint" />
            <Array as="points">
              <mxPoint x="1084" y="540" />
              <mxPoint x="1114" y="540" />
            </Array>
            <mxPoint x="1100" y="540" as="sourcePoint" />
          </mxGeometry>
        </mxCell>
        <mxCell id="yA4Jd4gJk7kA0UyTqe5--62" value="获取订单队列消息" style="html=1;verticalAlign=bottom;endArrow=block;rounded=0;labelBackgroundColor=none;fontSize=10;fontColor=default;strokeColor=#457B9D;curved=1;entryX=-0.011;entryY=0.882;entryDx=0;entryDy=0;entryPerimeter=0;" edge="1" parent="yA4Jd4gJk7kA0UyTqe5--1" target="yA4Jd4gJk7kA0UyTqe5--48">
          <mxGeometry width="80" relative="1" as="geometry">
            <mxPoint x="696" y="649" as="sourcePoint" />
            <mxPoint x="951.1300000000001" y="648.7500000000001" as="targetPoint" />
          </mxGeometry>
        </mxCell>
        <mxCell id="yA4Jd4gJk7kA0UyTqe5--63" value="" style="html=1;points=[];perimeter=orthogonalPerimeter;rounded=0;shadow=0;comic=0;labelBackgroundColor=none;strokeColor=#457B9D;strokeWidth=1;fillColor=#A8DADC;fontFamily=Verdana;fontSize=12;fontColor=#1D3557;align=center;" vertex="1" parent="yA4Jd4gJk7kA0UyTqe5--1">
          <mxGeometry x="960" y="588" width="10" height="54" as="geometry" />
        </mxCell>
        <mxCell id="yA4Jd4gJk7kA0UyTqe5--64" value="loop" style="shape=umlFrame;whiteSpace=wrap;html=1;pointerEvents=0;strokeWidth=1;strokeColor=#2D7600;shadow=0;fillColor=#60a917;swimlaneFillColor=none;fillStyle=auto;labelBackgroundColor=none;fontColor=#ffffff;" vertex="1" parent="yA4Jd4gJk7kA0UyTqe5--1">
          <mxGeometry x="619" y="627" width="661" height="173" as="geometry" />
        </mxCell>
        <mxCell id="yA4Jd4gJk7kA0UyTqe5--65" value="" style="html=1;verticalAlign=bottom;endArrow=block;labelBackgroundColor=none;fontFamily=Verdana;fontSize=12;elbow=vertical;edgeStyle=orthogonalEdgeStyle;curved=1;strokeColor=#457B9D;fontColor=default;" edge="1" parent="yA4Jd4gJk7kA0UyTqe5--1">
          <mxGeometry x="-0.2768" y="5" relative="1" as="geometry">
            <mxPoint x="696" y="762" as="sourcePoint" />
            <mxPoint x="696" y="785" as="targetPoint" />
            <Array as="points">
              <mxPoint x="726" y="762" />
              <mxPoint x="726" y="785" />
              <mxPoint x="696" y="785" />
            </Array>
            <mxPoint as="offset" />
          </mxGeometry>
        </mxCell>
        <mxCell id="yA4Jd4gJk7kA0UyTqe5--66" value="&lt;font style=&quot;font-size: 11px;&quot;&gt;失败loop轮询&lt;br style=&quot;font-size: 11px;&quot;&gt;下一个渠道SF-D，走下单流程&lt;/font&gt;" style="edgeLabel;html=1;align=left;verticalAlign=middle;resizable=0;points=[];labelBackgroundColor=none;fontColor=#1D3557;" vertex="1" connectable="0" parent="yA4Jd4gJk7kA0UyTqe5--65">
          <mxGeometry x="0.1382" y="-2" relative="1" as="geometry">
            <mxPoint as="offset" />
          </mxGeometry>
        </mxCell>
      </root>
    </mxGraphModel>
  </diagram>
</mxfile>
